PathFileType	4	(X/Y/Z)	C:/Users/beibeiliu/ov580/test_trc/User3\out9_training_dense_right.trc
DataRate	CameraRate	NumFrames	NumMarkers	Units	OrigDataRate	OrigDataStartFrame	OrigNumFrames
120	120	23	19	mm	120	438	500
Frame#	Time	ThumbCMC			ThumbMCP			ThumbIP			ThumbTip			IndexMCP			IndexPIP			IndexTip			MiddleMCP			MiddlePIP			MiddleTip			RingMCP			RingPIP			RingTip			PinkyMCP			PinkyPIP			PinkyTip			BackHand1			BackHand2			BackHand3	
		X0	Y0	Z0	X1	Y1	Z1	X2	Y2	Z2	X3	Y3	Z3	X4	Y4	Z4	X5	Y5	Z5	X6	Y6	Z6	X7	Y7	Z7	X8	Y8	Z8	X9	Y9	Z9	X10	Y10	Z10	X11	Y11	Z11	X12	Y12	Z12	X13	Y13	Z13	X14	Y14	Z14	X15	Y15	Z15	X16	Y16	Z16	X17	Y17	Z17	X18	Y18	Z18	
437	3.64167	159.987	85.8874	88.0142	136.86	94.302	64.2933	119.511	93.567	40.9796	104.788	80.8541	20.3741	171.368	79.432	13.744	157.923	89.9342	-13.3025	141.347	94.1798	-28.6578	177.328	54.1208	6.49703	166.583	61.4314	-25.2471	144.172	65.3698	-47.9979	172.247	33.195	11.1106	165.566	31.5256	-11.4607	148.386	33.7591	-35.0807	156.075	8.83915	29.3665	148.558	4.11873	11.1044	137.168	0.937585	-14.3476	180.851	28.9154	61.9114	184.528	25.3791	92.7508	189.167	58.5	78.3857	
438	3.65	151.963	82.3794	88.0586	128.003	88.358	63.2094	111.94	84.8812	35.324	105.433	66.8417	18.9535	168.891	86.514	12.1226	155.093	89.9593	-11.5464	134.207	95.9809	-31.8297	180.699	59.1219	8.30549	176.195	65.5337	-22.0271	157.272	68.2016	-51.5355	178.372	37.1454	14.6778	172.797	37.3647	-16.2437	158.347	39.0508	-36.4786	163.332	13.5615	25.8045	153.335	6.33567	4.96712	141.244	3.23247	-14.9404	185.277	35.5718	61.2464	186.988	29.2928	91.2198	185.316	65.4594	79.7742	
439	3.65833	142.747	81.302	88.2656	121.964	79.7776	59.2613	107.631	74.02	32.2823	102.397	58.7828	13.3595	164.601	89.4986	14.9658	150.89	97.4088	-11.0233	135.278	93.0413	-31.1296	183.574	65.7835	10.4701	181.157	75.0158	-18.7204	167.547	71.0004	-51.7355	182.554	43.1288	12.4095	178.919	46.4919	-13.3926	163.33	40.0778	-41.5071	169.717	20.9791	23.1722	159.857	10.622	1.56384	147.214	8.39224	-18.6733	187.826	41.2687	66.1128	189.132	34.3885	97.0138	179.906	73.7638	80.5416	
440	3.66667	134.693	77.8913	90.8655	114.874	73.9189	63.2789	103.326	66.2975	33.5491	102.14	51.1989	11.8156	158.423	95.9773	18.739	147.928	101.59	-5.83335	133.157	96.9757	-31.6322	183.052	76.7425	12.8279	181.456	83.8871	-13.5446	173.734	82.1281	-50.2986	182.19	53.3753	13.2388	179.947	51.3103	-11.2327	164.007	47.6537	-40.4131	176.063	25.0924	20.313	166.511	17.4295	-0.0131275	156.816	14.809	-14.6079	188.401	48.0925	65.7368	191.814	40.5903	94.8687	176.753	75.0033	82.7425	
441	3.675	132.292	72.4881	86.7925	113.634	67.7339	57.9134	101.88	60.3788	29.7101	104.528	46.1043	9.75009	154.675	98.2391	21.6884	145.413	102.838	-3.87429	132.483	104.782	-27.6687	178.495	86.2679	13.5171	179.571	88.2952	-14.257	170.95	93.7351	-44.59	181.431	57.5317	12.582	177.49	55.0765	-14.6117	164.814	48.5927	-35.8594	182.331	30.6608	20.0462	175.964	24.9545	1.79435	167.302	17.8212	-18.9967	188.982	56.0334	66.3783	190.39	50.0631	94.2796	171.651	79.0753	86.6527	
442	3.68333	128.429	69.4075	89.5269	108.815	64.2412	58.9832	100.893	55.3625	32.7681	100.104	42.9429	7.73795	147.929	101.832	18.7061	140.322	107.135	-5.59737	132.326	109.518	-29.7589	173.479	87.865	14.7866	171.038	94.2552	-14.4987	166.373	94.2488	-43.8806	178.107	61.6433	15.3738	172.687	58.4037	-12.3754	161.067	49.0849	-35.1921	185.902	37.72	24.1951	184.087	30.5371	3.26139	184.888	23.1805	-17.4392	187.351	61.9479	69.6006	188.792	51.7445	98.1944	167.194	79.3961	84.0441	
443	3.69167	124.322	70.5578	85.5062	108.43	62.5391	57.0769	98.3842	54.2914	30.9636	99.9879	42.2717	7.1358	146.326	99.6526	23.3732	140.55	106.849	-4.94593	128.841	112.065	-29.1162	169.168	89.8411	13.0498	167.367	91.3626	-17.9156	162.202	89.3743	-45.0491	178.071	62.3581	13.5529	172.212	58.3144	-13.8941	160.349	49.3981	-34.9872	192.436	42.1002	23.7618	190.638	39.4363	4.58976	196.328	33.3786	-16.6159	188.521	64.0482	69.987	190.625	58.685	95.9653	165.237	81.9094	85.2942	
444	3.7	121.404	69.4103	87.8419	107.893	59.4586	57.9323	98.9058	51.2566	32.7341	99.6399	41.1177	11.5003	144.841	99.2628	17.1666	134.642	107.955	-6.62408	126.455	111.207	-29.2475	166.503	87.8521	8.95769	161.942	88.0274	-20.3384	152.928	83.8121	-49.876	178.504	65.2215	10.7973	173.758	59.8585	-11.2226	161.406	45.0389	-38.0122	194.764	46.5245	29.6788	199.063	45.4575	5.41558	207.45	44.2867	-14.8987	186.197	71.8515	66.8079	186.617	63.2944	99.4728	161.709	84.2279	86.3536	
445	3.70833	120.378	67.2126	87.8757	105.404	57.7697	56.9552	99.756	49.8903	28.7699	97.4552	39.8662	9.42483	140.929	98.9086	16.4534	130.788	103.918	-3.54962	126.602	106.734	-28.0999	162.48	86.0668	6.55624	156.498	83.1518	-19.7728	149.332	69.7167	-49.6394	174.738	69.6397	12.36	175.285	60.8161	-11.3853	163.901	50.6781	-34.122	195.948	55.04	28.8968	202.088	56.1483	7.31503	212.303	58.2434	-10.2672	185.354	72.4722	69.6384	187.904	66.321	95.7633	159.234	85.685	88.1471	
446	3.71667	123.8	65.3443	85.0947	103.72	54.8708	60.1427	96.4715	47.6969	27.9254	100.944	39.1197	10.3442	137.5	97.49	19.8594	131.255	100.578	-10.2764	124.495	101.453	-29.2292	160.362	86.9423	5.73808	153.327	81.4606	-17.9471	141.517	64.036	-46.4601	174.517	73.5041	11.195	174.021	67.2369	-10.4275	164.932	52.6108	-33.2755	198.332	62.1132	28.57	204.805	64.7361	9.0788	214.94	72.0916	-9.47841	183.56	76.5657	71.8411	186.285	71.4199	97.9637	154.087	87.9402	88.4148	
447	3.725	120.418	63.0688	89.9648	107.275	54.3847	55.9486	100.924	48.3009	29.3156	100.934	39.5615	5.57486	134.128	98.0061	20.437	127.691	98.2571	-5.62199	123.418	94.7397	-31.0923	160.299	87.3319	11.7229	150.438	79.2506	-16.8217	139.302	57.6529	-42.9768	174.052	78.8761	17.3129	169.774	71.4456	-10.1494	161.078	51.7712	-34.8301	196.141	67.1817	32.4324	205.292	71.4881	9.6175	212.195	77.7548	-7.9699	184.013	81.6772	68.3306	185.187	72.8265	97.5524	154.648	87.3978	87.5687	
448	3.73333	124.599	62.8647	88.5229	105.527	53.1213	60.2092	103.249	45.9144	32.2133	103.825	39.341	4.61553	132.979	96.9281	20.8827	128.263	90.7868	-11.0175	123.136	81.1855	-30.8448	159.275	88.9443	11.3228	148.75	78.1005	-16.7719	140.529	48.4101	-37.2054	175.325	82.3329	14.7933	172.599	69.9374	-12.6659	163.039	47.9782	-29.641	197.562	71.3511	34.3003	201.435	76.5217	10.2743	205.464	76.1166	-11.8385	180.72	85.6107	73.7741	183.839	74.7601	103.195	149.814	91.5246	88.854	
449	3.74167	124.84	63.8522	87.9073	111.333	52.028	61.5707	101.595	46.0673	32.6269	106.003	39.2619	9.32479	134.346	95.4741	21.6044	124.975	87.189	-7.96461	121.835	67.3695	-26.5624	153.934	93.1519	14.3414	149.005	77.4012	-15.7281	138.053	42.8649	-25.6724	177.998	85.3482	17.5735	170.848	72.5279	-10.4651	164.886	46.1248	-18.1595	196.866	74.1138	35.5976	199.589	75.2069	10.5015	193.992	64.6045	-11.6604	180.495	86.6815	75.5238	184.92	77.3937	100.792	149.959	90.7077	92.6766	
450	3.75	122.365	63.688	89.6486	111.123	54.4096	57.6031	109.552	49.2052	28.5714	113.4	41.4475	6.25585	132.166	98.4981	19.1537	129.578	87.2313	-5.73515	118.332	56.3884	-19.7337	157.97	96.1531	16.3715	150.173	81.7265	-13.5993	143.336	44.0809	-14.0745	174.097	87.3312	22.1664	171.117	69.6078	-6.78143	158.389	41.5788	-5.94633	193.984	75.7962	32.6554	191.882	67.9658	6.46564	180.923	42.9656	-5.33014	180.888	87.5016	75.3036	183.65	78.3506	106.09	150.948	91.8566	93.9933	
451	3.75833	124.648	65.7423	89.2735	111.115	57.7921	57.1189	109.463	51.684	27.8894	123.898	45.6981	3.43126	137.959	101.728	21.8924	128.262	85.719	-7.45838	122.983	58.6237	-7.78376	158.29	99.4837	18.2764	148.808	80.2497	-12.0725	139.427	43.5566	2.26627	177.412	85.9919	18.0735	167.135	65.9351	-3.96351	153.651	39.3773	12.9868	189.148	75.2393	27.9618	187.014	60.5523	7.54285	168.776	33.9998	11.4913	182.938	87.7819	77.7468	185.452	76.5978	106.508	150.959	92.0586	93.3918	
452	3.76667	124.937	68.4005	87.1546	112.13	59.7307	56.4284	119.51	57.4103	24.0251	134.333	49.5968	3.90448	141.924	106.334	20.6563	129.761	91.9978	-3.82402	120.87	62.2284	5.14085	159.538	103.781	16.526	149.389	84.7596	-8.78154	142.188	50.742	15.6777	173.488	87.4464	19.9313	165.803	65.9495	0.941894	154.941	42.03	23.9231	188.456	72.1579	26.4802	178.207	53.866	11.6485	163.611	33.5838	26.1409	183.228	91.5693	77.3646	182.816	76.7211	106.456	150.727	94.6036	91.4483	
453	3.775	124.775	69.3796	85.9542	114.849	63.9432	50.9132	121.217	60.1402	22.1296	145.046	55.3486	6.00559	137.686	111.18	23.8752	131.27	91.9599	-0.981943	124.128	64.8312	15.9231	157.095	107.537	19.4402	148.404	87.355	-5.39744	141.213	58.4988	21.6451	175.99	86.2221	22.567	165.02	60.0759	7.06504	155.854	45.6149	32.2056	187.861	71.8031	26.1253	172.889	47.8774	18.8324	161.912	35.4618	38.7387	184.352	92.0485	75.5915	185.001	77.8611	108.591	149.649	96.694	93.0892	
454	3.78333	121.98	67.5132	89.7124	110.558	63.7025	52.8431	123.953	63.3651	22.2942	144.434	56.0412	10.2491	141.018	112.257	24.5535	129.571	93.7253	0.370375	122.407	68.3457	15.7079	158.08	108.895	19.3071	149.87	89.6624	-3.62219	140.584	61.553	21.9233	173.038	88.5597	22.2637	160.755	60.5655	10.5177	153.186	49.6431	40.4478	185.288	73.878	32.4525	169.2	49.7062	22.5216	162.035	38.7479	50.0213	182.876	93.1139	79.8905	184.241	78.273	106.501	150.068	94.3324	97.9369	
455	3.79167	119.562	69.4039	86.808	110.645	63.4905	51.5252	121.998	60.905	21.1717	147.58	54.6411	11.8589	141.148	112.546	23.8878	131.959	97.9871	-1.35415	121.223	69.5698	8.03381	161.933	108.726	20.5397	151.145	93.5581	-5.89638	142.346	58.8422	17.6729	173.289	86.4848	21.6021	163.541	60.3716	9.83136	152.758	47.5554	42.078	182.198	68.5923	28.9532	167.222	47.6416	25.4427	163.327	38.9221	57.7004	179.609	94.193	77.1286	180.316	78.6601	110.554	149.772	98.2106	94.0424	
456	3.8	118.891	71.0039	83.8321	109.351	59.8436	52.2583	119.667	55.3212	19.6094	143.57	48.0219	9.53012	140.017	110.758	24.4828	132.458	101.895	-6.26317	121.538	68.2767	-6.19983	160.747	109.04	18.1805	154.556	96.5967	-10.1867	141.334	59.3876	-5.45979	173.913	82.778	21.7001	163.276	55.0323	8.65077	150.496	41.7579	34.7291	180.513	64.0733	28.6606	168.897	42.8498	26.2993	159.099	36.4217	55.6345	179.452	90.8258	79.9222	180.449	77.4547	106.505	147.32	95.9014	93.4367	
457	3.80833	118.127	68.9536	83.8073	107.62	56.387	50.5994	117.886	47.8027	22.6066	135.94	39.303	9.24186	141.536	107.154	23.0727	134.792	101.368	-11.9203	127.953	76.2598	-25.2953	166.226	105.33	15.4157	160.348	95.8506	-16.8749	146.406	63.8732	-30.2793	173.889	77.2839	17.9579	161.092	51.1549	4.80151	150.289	32.7607	30.5345	185.783	57.6607	31.7543	165.727	37.342	28.8675	159.413	28.6839	56.197	180.862	90.2174	74.6058	179.553	78.1066	105.134	148.401	98.2894	88.4096	
458	3.81667	116.562	69.8006	79.4333	107.033	51.2307	51.251	116.046	40.5772	22.6736	129.657	30.9132	5.63829	140.112	103.399	17.9348	131.979	101.725	-9.49879	128.74	84.7384	-37.3358	165.809	100.371	14.4062	161.878	98.1464	-16.8309	155.359	73.5731	-45.7341	177.285	70.6577	18.5909	166.166	39.7259	4.97845	149.681	24.7169	22.5569	186.134	51.1981	29.3187	169.125	30.2693	29.1176	156.333	27.712	53.7012	180.67	87.3861	74.7306	180.677	81.763	101.435	147.034	97.4512	84.9775	
459	3.825	120.439	66.8486	84.3989	111.049	50.4318	50.4196	108.845	35.7558	24.9382	121.327	24.1378	2.07501	142.824	99.0145	14.3762	130.995	98.4923	-13.6466	129.043	92.43	-39.473	165.034	96.8903	12.212	165.586	92.0359	-19.3262	161.264	80.0849	-50.0599	177.562	65.3772	18.8039	167.213	38.582	5.63923	150.917	16.1037	26.7584	189.631	49.2636	33.1161	170.179	25.9124	32.9784	153.286	22.6874	57.5301	181.247	88.6083	70.1779	181.664	79.4137	105.483	149.599	95.9086	83.7054	
